<?xml version="1.0" standalone="no"?>
<!DOCTYPE svg PUBLIC "-//W3C//DTD SVG 20010904//EN"
 "http://www.w3.org/TR/2001/REC-SVG-20010904/DTD/svg10.dtd">
<svg version="1.0" xmlns="http://www.w3.org/2000/svg"
 width="195.000000pt" height="200.000000pt" viewBox="0 0 195.000000 200.000000"
 preserveAspectRatio="xMidYMid meet">
<metadata>
Created by potrace 1.16, written by Peter Selinger 2001-2019
</metadata>
<g transform="translate(0.000000,200.000000) scale(0.100000,-0.100000)"
fill="#000000" stroke="none">
<path d="M870 1854 c-189 -233 -209 -259 -210 -270 0 -7 33 2 78 22 165 71
329 65 495 -18 27 -13 37 -15 37 -6 0 15 -290 370 -305 374 -5 2 -48 -44 -95
-102z"/>
<path d="M660 450 c0 -9 298 -380 305 -380 2 0 61 71 132 158 209 255 210 256
111 206 -48 -25 -141 -49 -221 -57 -53 -6 -207 28 -266 58 -56 28 -61 29 -61
15z"/>
</g>
</svg>
